<?xml version="1.0" encoding="UTF-8"?>
<svg xmlns="http://www.w3.org/2000/svg" xmlns:xlink="http://www.w3.org/1999/xlink" width="488.8646pt" height="451.7788pt" viewBox="0 0 488.8646 451.7788" version="1.1">
<defs>
<clipPath id="clip1">
  <path d="M 0 0 L 488.863281 0 L 488.863281 451.777344 L 0 451.777344 Z M 0 0 "/>
</clipPath>
<clipPath id="clip2">
  <path d="M 198 77.128906 L 207.867188 77.128906 L 207.867188 87 L 198 87 Z M 198 77.128906 "/>
</clipPath>
<clipPath id="clip3">
  <path d="M 163 187 L 172.820312 187 L 172.820312 196.945312 L 163 196.945312 Z M 163 187 "/>
</clipPath>
<clipPath id="clip4">
  <path d="M 49 187 L 59 187 L 59 196.945312 L 49 196.945312 Z M 49 187 "/>
</clipPath>
<clipPath id="clip5">
  <path d="M 13 77.128906 L 23 77.128906 L 23 87 L 13 87 Z M 13 77.128906 "/>
</clipPath>
<clipPath id="clip6">
  <path d="M 105 62 L 115 62 L 115 71.792969 L 105 71.792969 Z M 105 62 "/>
</clipPath>
<clipPath id="clip7">
  <path d="M 79 147 L 88.910156 147 L 88.910156 157 L 79 157 Z M 79 147 "/>
</clipPath>
<clipPath id="clip8">
  <path d="M 60.152344 93 L 70 93 L 70 103 L 60.152344 103 Z M 60.152344 93 "/>
</clipPath>
<clipPath id="clip9">
  <path d="M 20.070312 16.898438 L 108.066406 16.898438 L 108.066406 81.484375 L 20.070312 81.484375 Z M 20.070312 16.898438 "/>
</clipPath>
<clipPath id="clip10">
  <path d="M 112.433594 16.898438 L 200.433594 16.898438 L 200.433594 81.484375 L 112.433594 81.484375 Z M 112.433594 16.898438 "/>
</clipPath>
<clipPath id="clip11">
  <path d="M 108.3125 19.707031 L 112.1875 19.707031 L 112.1875 62.839844 L 108.3125 62.839844 Z M 108.3125 19.707031 "/>
</clipPath>
<clipPath id="clip12">
  <path d="M 167.054688 85.515625 L 203.128906 85.515625 L 203.128906 188.558594 L 167.054688 188.558594 Z M 167.054688 85.515625 "/>
</clipPath>
<clipPath id="clip13">
  <path d="M 57.796875 189.757812 L 163.867188 189.757812 L 163.867188 193.632812 L 57.796875 193.632812 Z M 57.796875 189.757812 "/>
</clipPath>
<clipPath id="clip14">
  <path d="M 17.414062 85.492188 L 54.566406 85.492188 L 54.566406 188.582031 L 17.414062 188.582031 Z M 17.414062 85.492188 "/>
</clipPath>
<clipPath id="clip15">
  <path d="M 55.058594 154.015625 L 82.695312 154.015625 L 82.695312 189.566406 L 55.058594 189.566406 Z M 55.058594 154.015625 "/>
</clipPath>
<clipPath id="clip16">
  <path d="M 138.96875 154.015625 L 166.605469 154.015625 L 166.605469 189.566406 L 138.96875 189.566406 Z M 138.96875 154.015625 "/>
</clipPath>
<clipPath id="clip17">
  <path d="M 158.226562 81.917969 L 199.507812 81.917969 L 199.507812 98.660156 L 158.226562 98.660156 Z M 158.226562 81.917969 "/>
</clipPath>
<clipPath id="clip18">
  <path d="M 20.992188 81.917969 L 62.296875 81.917969 L 62.296875 98.660156 L 20.992188 98.660156 Z M 20.992188 81.917969 "/>
</clipPath>
<clipPath id="clip19">
  <path d="M 83.105469 69.699219 L 110.800781 69.699219 L 110.800781 148.730469 L 83.105469 148.730469 Z M 83.105469 69.699219 "/>
</clipPath>
<clipPath id="clip20">
  <path d="M 109.757812 69.667969 L 138.503906 69.667969 L 138.503906 148.761719 L 109.757812 148.761719 Z M 109.757812 69.667969 "/>
</clipPath>
<clipPath id="clip21">
  <path d="M 67.539062 99.148438 L 135.875 99.148438 L 135.875 150.933594 L 67.539062 150.933594 Z M 67.539062 99.148438 "/>
</clipPath>
<clipPath id="clip22">
  <path d="M 69.105469 96.257812 L 151.414062 96.257812 L 151.414062 100.132812 L 69.105469 100.132812 Z M 69.105469 96.257812 "/>
</clipPath>
<clipPath id="clip23">
  <path d="M 85.765625 99.183594 L 153.011719 99.183594 L 153.011719 150.902344 L 85.765625 150.902344 Z M 85.765625 99.183594 "/>
</clipPath>
<clipPath id="clip24">
  <path d="M 103.835938 252.796875 L 116.664062 252.796875 L 116.664062 265.625 L 103.835938 265.625 Z M 103.835938 252.796875 "/>
</clipPath>
<clipPath id="clip25">
  <path d="M 198 321 L 207.867188 321 L 207.867188 330.835938 L 198 330.835938 Z M 198 321 "/>
</clipPath>
<clipPath id="clip26">
  <path d="M 163 430 L 172.820312 430 L 172.820312 440 L 163 440 Z M 163 430 "/>
</clipPath>
<clipPath id="clip27">
  <path d="M 13 321 L 23 321 L 23 330.835938 L 13 330.835938 Z M 13 321 "/>
</clipPath>
<clipPath id="clip28">
  <path d="M 150 336.148438 L 160 336.148438 L 160 346 L 150 346 Z M 150 336.148438 "/>
</clipPath>
<clipPath id="clip29">
  <path d="M 79 390 L 88.910156 390 L 88.910156 400 L 79 400 Z M 79 390 "/>
</clipPath>
<clipPath id="clip30">
  <path d="M 60.152344 336.148438 L 70 336.148438 L 70 346 L 60.152344 346 Z M 60.152344 336.148438 "/>
</clipPath>
<clipPath id="clip31">
  <path d="M 20.070312 260.789062 L 107.117188 260.789062 L 107.117188 324.691406 L 20.070312 324.691406 Z M 20.070312 260.789062 "/>
</clipPath>
<clipPath id="clip32">
  <path d="M 113.386719 260.789062 L 200.433594 260.789062 L 200.433594 324.691406 L 113.386719 324.691406 Z M 113.386719 260.789062 "/>
</clipPath>
<clipPath id="clip33">
  <path d="M 108.3125 264.078125 L 112.1875 264.078125 L 112.1875 306.046875 L 108.3125 306.046875 Z M 108.3125 264.078125 "/>
</clipPath>
<clipPath id="clip34">
  <path d="M 167.054688 328.722656 L 203.128906 328.722656 L 203.128906 431.765625 L 167.054688 431.765625 Z M 167.054688 328.722656 "/>
</clipPath>
<clipPath id="clip35">
  <path d="M 57.796875 432.960938 L 163.867188 432.960938 L 163.867188 436.835938 L 57.796875 436.835938 Z M 57.796875 432.960938 "/>
</clipPath>
<clipPath id="clip36">
  <path d="M 17.414062 328.695312 L 54.566406 328.695312 L 54.566406 431.789062 L 17.414062 431.789062 Z M 17.414062 328.695312 "/>
</clipPath>
<clipPath id="clip37">
  <path d="M 55.058594 397.21875 L 82.695312 397.21875 L 82.695312 432.773438 L 55.058594 432.773438 Z M 55.058594 397.21875 "/>
</clipPath>
<clipPath id="clip38">
  <path d="M 138.96875 397.21875 L 166.605469 397.21875 L 166.605469 432.773438 L 138.96875 432.773438 Z M 138.96875 397.21875 "/>
</clipPath>
<clipPath id="clip39">
  <path d="M 158.226562 325.125 L 199.507812 325.125 L 199.507812 341.863281 L 158.226562 341.863281 Z M 158.226562 325.125 "/>
</clipPath>
<clipPath id="clip40">
  <path d="M 20.992188 325.121094 L 62.296875 325.121094 L 62.296875 341.863281 L 20.992188 341.863281 Z M 20.992188 325.121094 "/>
</clipPath>
<clipPath id="clip41">
  <path d="M 83.105469 312.902344 L 110.800781 312.902344 L 110.800781 391.9375 L 83.105469 391.9375 Z M 83.105469 312.902344 "/>
</clipPath>
<clipPath id="clip42">
  <path d="M 109.757812 312.871094 L 138.503906 312.871094 L 138.503906 391.96875 L 109.757812 391.96875 Z M 109.757812 312.871094 "/>
</clipPath>
<clipPath id="clip43">
  <path d="M 67.539062 342.355469 L 135.875 342.355469 L 135.875 394.136719 L 67.539062 394.136719 Z M 67.539062 342.355469 "/>
</clipPath>
<clipPath id="clip44">
  <path d="M 69.105469 339.464844 L 151.414062 339.464844 L 151.414062 343.339844 L 69.105469 343.339844 Z M 69.105469 339.464844 "/>
</clipPath>
<clipPath id="clip45">
  <path d="M 85.765625 342.386719 L 153.011719 342.386719 L 153.011719 394.105469 L 85.765625 394.105469 Z M 85.765625 342.386719 "/>
</clipPath>
<clipPath id="clip46">
  <path d="M 464 321 L 473.8125 321 L 473.8125 330.835938 L 464 330.835938 Z M 464 321 "/>
</clipPath>
<clipPath id="clip47">
  <path d="M 279 321 L 289 321 L 289 330.835938 L 279 330.835938 Z M 279 321 "/>
</clipPath>
<clipPath id="clip48">
  <path d="M 369.78125 303.335938 L 382.609375 303.335938 L 382.609375 316.164062 L 369.78125 316.164062 Z M 369.78125 303.335938 "/>
</clipPath>
<clipPath id="clip49">
  <path d="M 416 336.148438 L 426 336.148438 L 426 346 L 416 346 Z M 416 336.148438 "/>
</clipPath>
<clipPath id="clip50">
  <path d="M 345 390 L 354.855469 390 L 354.855469 400 L 345 400 Z M 345 390 "/>
</clipPath>
<clipPath id="clip51">
  <path d="M 326.097656 336.148438 L 336 336.148438 L 336 346 L 326.097656 346 Z M 326.097656 336.148438 "/>
</clipPath>
<clipPath id="clip52">
  <path d="M 286.015625 260.105469 L 374.011719 260.105469 L 374.011719 324.691406 L 286.015625 324.691406 Z M 286.015625 260.105469 "/>
</clipPath>
<clipPath id="clip53">
  <path d="M 378.378906 260.105469 L 466.378906 260.105469 L 466.378906 324.691406 L 378.378906 324.691406 Z M 378.378906 260.105469 "/>
</clipPath>
<clipPath id="clip54">
  <path d="M 374.257812 262.914062 L 378.132812 262.914062 L 378.132812 304.882812 L 374.257812 304.882812 Z M 374.257812 262.914062 "/>
</clipPath>
<clipPath id="clip55">
  <path d="M 433 328.722656 L 469.074219 328.722656 L 469.074219 431.765625 L 433 431.765625 Z M 433 328.722656 "/>
</clipPath>
<clipPath id="clip56">
  <path d="M 323.742188 432.960938 L 429.816406 432.960938 L 429.816406 436.835938 L 323.742188 436.835938 Z M 323.742188 432.960938 "/>
</clipPath>
<clipPath id="clip57">
  <path d="M 283.363281 328.695312 L 320.511719 328.695312 L 320.511719 431.789062 L 283.363281 431.789062 Z M 283.363281 328.695312 "/>
</clipPath>
<clipPath id="clip58">
  <path d="M 321.003906 397.21875 L 348.640625 397.21875 L 348.640625 432.773438 L 321.003906 432.773438 Z M 321.003906 397.21875 "/>
</clipPath>
<clipPath id="clip59">
  <path d="M 404.917969 397.21875 L 432.554688 397.21875 L 432.554688 432.773438 L 404.917969 432.773438 Z M 404.917969 397.21875 "/>
</clipPath>
<clipPath id="clip60">
  <path d="M 424.171875 325.125 L 465.453125 325.125 L 465.453125 341.863281 L 424.171875 341.863281 Z M 424.171875 325.125 "/>
</clipPath>
<clipPath id="clip61">
  <path d="M 286.9375 325.121094 L 328.242188 325.121094 L 328.242188 341.863281 L 286.9375 341.863281 Z M 286.9375 325.121094 "/>
</clipPath>
<clipPath id="clip62">
  <path d="M 349.050781 314.015625 L 376.402344 314.015625 L 376.402344 391.9375 L 349.050781 391.9375 Z M 349.050781 314.015625 "/>
</clipPath>
<clipPath id="clip63">
  <path d="M 376.0625 313.984375 L 404.449219 313.984375 L 404.449219 391.96875 L 376.0625 391.96875 Z M 376.0625 313.984375 "/>
</clipPath>
<clipPath id="clip64">
  <path d="M 333.484375 342.355469 L 401.820312 342.355469 L 401.820312 394.136719 L 333.484375 394.136719 Z M 333.484375 342.355469 "/>
</clipPath>
<clipPath id="clip65">
  <path d="M 335.050781 339.464844 L 417.363281 339.464844 L 417.363281 343.339844 L 335.050781 343.339844 Z M 335.050781 339.464844 "/>
</clipPath>
<clipPath id="clip66">
  <path d="M 351.710938 342.386719 L 418.957031 342.386719 L 418.957031 394.105469 L 351.710938 394.105469 Z M 351.710938 342.386719 "/>
</clipPath>
<clipPath id="clip67">
  <path d="M 464 77.128906 L 473.8125 77.128906 L 473.8125 87 L 464 87 Z M 464 77.128906 "/>
</clipPath>
<clipPath id="clip68">
  <path d="M 429 187 L 438 187 L 438 196.945312 L 429 196.945312 Z M 429 187 "/>
</clipPath>
<clipPath id="clip69">
  <path d="M 315 187 L 325 187 L 325 196.945312 L 315 196.945312 Z M 315 187 "/>
</clipPath>
<clipPath id="clip70">
  <path d="M 279 77.128906 L 289 77.128906 L 289 87 L 279 87 Z M 279 77.128906 "/>
</clipPath>
<clipPath id="clip71">
  <path d="M 371 62 L 381 62 L 381 71.792969 L 371 71.792969 Z M 371 62 "/>
</clipPath>
<clipPath id="clip72">
  <path d="M 345 147 L 354.855469 147 L 354.855469 157 L 345 157 Z M 345 147 "/>
</clipPath>
<clipPath id="clip73">
  <path d="M 326.097656 93 L 336 93 L 336 103 L 326.097656 103 Z M 326.097656 93 "/>
</clipPath>
<clipPath id="clip74">
  <path d="M 286.015625 16.898438 L 374.011719 16.898438 L 374.011719 81.484375 L 286.015625 81.484375 Z M 286.015625 16.898438 "/>
</clipPath>
<clipPath id="clip75">
  <path d="M 378.378906 16.898438 L 466.378906 16.898438 L 466.378906 81.484375 L 378.378906 81.484375 Z M 378.378906 16.898438 "/>
</clipPath>
<clipPath id="clip76">
  <path d="M 369.3125 19.707031 L 383.082031 19.707031 L 383.082031 62.839844 L 369.3125 62.839844 Z M 369.3125 19.707031 "/>
</clipPath>
<clipPath id="clip77">
  <path d="M 369.3125 51 L 383 51 L 383 62 L 369.3125 62 Z M 369.3125 51 "/>
</clipPath>
<clipPath id="clip78">
  <path d="M 433 85.515625 L 469.074219 85.515625 L 469.074219 188.558594 L 433 188.558594 Z M 433 85.515625 "/>
</clipPath>
<clipPath id="clip79">
  <path d="M 323.742188 189.757812 L 429.816406 189.757812 L 429.816406 193.632812 L 323.742188 193.632812 Z M 323.742188 189.757812 "/>
</clipPath>
<clipPath id="clip80">
  <path d="M 283.363281 85.492188 L 320.511719 85.492188 L 320.511719 188.582031 L 283.363281 188.582031 Z M 283.363281 85.492188 "/>
</clipPath>
<clipPath id="clip81">
  <path d="M 321.003906 154.015625 L 348.640625 154.015625 L 348.640625 189.566406 L 321.003906 189.566406 Z M 321.003906 154.015625 "/>
</clipPath>
<clipPath id="clip82">
  <path d="M 404.917969 154.015625 L 432.554688 154.015625 L 432.554688 189.566406 L 404.917969 189.566406 Z M 404.917969 154.015625 "/>
</clipPath>
<clipPath id="clip83">
  <path d="M 424.171875 81.917969 L 465.453125 81.917969 L 465.453125 98.660156 L 424.171875 98.660156 Z M 424.171875 81.917969 "/>
</clipPath>
<clipPath id="clip84">
  <path d="M 286.9375 81.917969 L 328.242188 81.917969 L 328.242188 98.660156 L 286.9375 98.660156 Z M 286.9375 81.917969 "/>
</clipPath>
<clipPath id="clip85">
  <path d="M 349.050781 69.699219 L 376.75 69.699219 L 376.75 148.730469 L 349.050781 148.730469 Z M 349.050781 69.699219 "/>
</clipPath>
<clipPath id="clip86">
  <path d="M 375.703125 69.667969 L 406.308594 69.667969 L 406.308594 148.761719 L 375.703125 148.761719 Z M 375.703125 69.667969 "/>
</clipPath>
<clipPath id="clip87">
  <path d="M 333.484375 99.148438 L 401.820312 99.148438 L 401.820312 150.933594 L 333.484375 150.933594 Z M 333.484375 99.148438 "/>
</clipPath>
<clipPath id="clip88">
  <path d="M 335.050781 91.3125 L 417.363281 91.3125 L 417.363281 105.082031 L 335.050781 105.082031 Z M 335.050781 91.3125 "/>
</clipPath>
<clipPath id="clip89">
  <path d="M 405 91.3125 L 417 91.3125 L 417 105 L 405 105 Z M 405 91.3125 "/>
</clipPath>
<clipPath id="clip90">
  <path d="M 351.710938 99.183594 L 418.957031 99.183594 L 418.957031 150.902344 L 351.710938 150.902344 Z M 351.710938 99.183594 "/>
</clipPath>
</defs>
<g id="surface1">
<g clip-path="url(#clip1)" clip-rule="nonzero">
<rect x="0" y="0" width="488.8646" height="451.7788" style="fill:rgb(99.998474%,100%,100%);fill-opacity:1;stroke:none;"/>
</g>
<path style=" stroke:none;fill-rule:nonzero;fill:rgb(19.015503%,39.903259%,57.575989%);fill-opacity:1;" d="M 113.417969 12.839844 C 115.164062 14.585938 115.164062 17.421875 113.417969 19.171875 C 111.667969 20.917969 108.832031 20.917969 107.085938 19.171875 C 105.335938 17.421875 105.335938 14.585938 107.085938 12.839844 C 108.832031 11.089844 111.667969 11.089844 113.417969 12.839844 Z M 113.417969 12.839844 "/>
<g clip-path="url(#clip2)" clip-rule="nonzero">
<path style=" stroke:none;fill-rule:nonzero;fill:rgb(19.015503%,39.903259%,57.575989%);fill-opacity:1;" d="M 205.78125 79.214844 C 207.53125 80.964844 207.53125 83.796875 205.78125 85.546875 C 204.035156 87.292969 201.199219 87.292969 199.449219 85.546875 C 197.703125 83.796875 197.703125 80.964844 199.449219 79.214844 C 201.199219 77.464844 204.035156 77.464844 205.78125 79.214844 Z M 205.78125 79.214844 "/>
</g>
<g clip-path="url(#clip3)" clip-rule="nonzero">
<path style=" stroke:none;fill-rule:nonzero;fill:rgb(19.015503%,39.903259%,57.575989%);fill-opacity:1;" d="M 170.734375 188.527344 C 172.484375 190.277344 172.484375 193.113281 170.734375 194.859375 C 168.984375 196.609375 166.152344 196.609375 164.402344 194.859375 C 162.65625 193.113281 162.65625 190.277344 164.402344 188.527344 C 166.152344 186.78125 168.984375 186.78125 170.734375 188.527344 Z M 170.734375 188.527344 "/>
</g>
<g clip-path="url(#clip4)" clip-rule="nonzero">
<path style=" stroke:none;fill-rule:nonzero;fill:rgb(19.015503%,39.903259%,57.575989%);fill-opacity:1;" d="M 57.261719 188.527344 C 59.011719 190.277344 59.011719 193.113281 57.261719 194.859375 C 55.515625 196.609375 52.679688 196.609375 50.929688 194.859375 C 49.183594 193.113281 49.183594 190.277344 50.929688 188.527344 C 52.679688 186.78125 55.515625 186.78125 57.261719 188.527344 Z M 57.261719 188.527344 "/>
</g>
<g clip-path="url(#clip5)" clip-rule="nonzero">
<path style=" stroke:none;fill-rule:nonzero;fill:rgb(19.015503%,39.903259%,57.575989%);fill-opacity:1;" d="M 21.050781 79.214844 C 22.800781 80.964844 22.800781 83.796875 21.050781 85.546875 C 19.304688 87.292969 16.46875 87.292969 14.71875 85.546875 C 12.972656 83.796875 12.972656 80.964844 14.71875 79.214844 C 16.46875 77.464844 19.304688 77.464844 21.050781 79.214844 Z M 21.050781 79.214844 "/>
</g>
<g clip-path="url(#clip6)" clip-rule="nonzero">
<path style=" stroke:none;fill-rule:nonzero;fill:rgb(19.015503%,39.903259%,57.575989%);fill-opacity:1;" d="M 113.417969 63.375 C 115.164062 65.125 115.164062 67.960938 113.417969 69.707031 C 111.667969 71.457031 108.832031 71.457031 107.085938 69.707031 C 105.335938 67.960938 105.335938 65.125 107.085938 63.375 C 108.832031 61.628906 111.667969 61.628906 113.417969 63.375 Z M 113.417969 63.375 "/>
</g>
<path style=" stroke:none;fill-rule:nonzero;fill:rgb(19.015503%,39.903259%,57.575989%);fill-opacity:1;" d="M 158.285156 95.03125 C 160.03125 96.777344 160.03125 99.613281 158.285156 101.363281 C 156.535156 103.109375 153.699219 103.109375 151.953125 101.363281 C 150.203125 99.613281 150.203125 96.777344 151.953125 95.03125 C 153.699219 93.28125 156.535156 93.28125 158.285156 95.03125 Z M 158.285156 95.03125 "/>
<path style=" stroke:none;fill-rule:nonzero;fill:rgb(19.015503%,39.903259%,57.575989%);fill-opacity:1;" d="M 141.175781 148.71875 C 142.921875 150.46875 142.921875 153.304688 141.175781 155.050781 C 139.425781 156.800781 136.589844 156.800781 134.84375 155.050781 C 133.09375 153.304688 133.09375 150.46875 134.84375 148.71875 C 136.589844 146.972656 139.425781 146.972656 141.175781 148.71875 Z M 141.175781 148.71875 "/>
<g clip-path="url(#clip7)" clip-rule="nonzero">
<path style=" stroke:none;fill-rule:nonzero;fill:rgb(19.015503%,39.903259%,57.575989%);fill-opacity:1;" d="M 86.824219 148.71875 C 88.570312 150.46875 88.570312 153.304688 86.824219 155.050781 C 85.074219 156.800781 82.238281 156.800781 80.492188 155.050781 C 78.742188 153.304688 78.742188 150.46875 80.492188 148.71875 C 82.238281 146.972656 85.074219 146.972656 86.824219 148.71875 Z M 86.824219 148.71875 "/>
</g>
<g clip-path="url(#clip8)" clip-rule="nonzero">
<path style=" stroke:none;fill-rule:nonzero;fill:rgb(19.015503%,39.903259%,57.575989%);fill-opacity:1;" d="M 68.570312 95.03125 C 70.316406 96.777344 70.316406 99.613281 68.570312 101.363281 C 66.820312 103.109375 63.984375 103.109375 62.238281 101.363281 C 60.488281 99.613281 60.488281 96.777344 62.238281 95.03125 C 63.984375 93.28125 66.820312 93.28125 68.570312 95.03125 Z M 68.570312 95.03125 "/>
</g>
<g clip-path="url(#clip9)" clip-rule="nonzero">
<path style="fill:none;stroke-width:3;stroke-linecap:butt;stroke-linejoin:miter;stroke:rgb(45.097351%,65.489197%,82.743835%);stroke-opacity:1;stroke-miterlimit:4;" d="M 0.00211361 78.926423 L 109.832363 -0.00130689 " transform="matrix(0.77474,0,0,0.77474,21.5218,18.6182)"/>
</g>
<g clip-path="url(#clip10)" clip-rule="nonzero">
<path style="fill:none;stroke-width:3;stroke-linecap:butt;stroke-linejoin:miter;stroke:rgb(45.097351%,65.489197%,82.743835%);stroke-opacity:1;stroke-miterlimit:4;" d="M 109.834929 78.926423 L -0.000363025 -0.00130689 " transform="matrix(0.77474,0,0,0.77474,113.887,18.6182)"/>
</g>
<g clip-path="url(#clip11)" clip-rule="nonzero">
<path style="fill:none;stroke-width:3;stroke-linecap:butt;stroke-linejoin:miter;stroke:rgb(45.097351%,65.489197%,82.743835%);stroke-opacity:1;stroke-miterlimit:4;" d="M -0.000774454 53.674946 C -0.000774454 35.780829 -0.000774454 17.891754 -0.000774454 -0.0023637 " transform="matrix(0.77474,0,0,0.77474,110.2506,20.4823)"/>
</g>
<g clip-path="url(#clip12)" clip-rule="nonzero">
<path style="fill:none;stroke-width:3;stroke-linecap:butt;stroke-linejoin:miter;stroke:rgb(45.097351%,65.489197%,82.743835%);stroke-opacity:1;stroke-miterlimit:4;" d="M 0.00206521 130.088855 L 41.709627 -0.000217815 " transform="matrix(0.77474,0,0,0.77474,168.9359,86.6447)"/>
</g>
<g clip-path="url(#clip13)" clip-rule="nonzero">
<path style="fill:none;stroke-width:3;stroke-linecap:butt;stroke-linejoin:miter;stroke:rgb(45.097351%,65.489197%,82.743835%);stroke-opacity:1;stroke-miterlimit:4;" d="M -0.00192 0.00143597 C 44.972869 0.00143597 89.942616 0.00143597 134.912363 0.00143597 " transform="matrix(0.77474,0,0,0.77474,58.5718,191.6942)"/>
</g>
<g clip-path="url(#clip14)" clip-rule="nonzero">
<path style="fill:none;stroke-width:3;stroke-linecap:butt;stroke-linejoin:miter;stroke:rgb(45.097351%,65.489197%,82.743835%);stroke-opacity:1;stroke-miterlimit:4;" d="M -0.00081479 0.00195227 L 43.103386 130.121277 " transform="matrix(0.77474,0,0,0.77474,19.2936,86.6313)"/>
</g>
<g clip-path="url(#clip15)" clip-rule="nonzero">
<path style="fill:none;stroke-width:3;stroke-linecap:butt;stroke-linejoin:miter;stroke:rgb(45.097351%,65.489197%,82.743835%);stroke-opacity:1;stroke-miterlimit:4;" d="M -0.00164571 42.099637 L 31.2639 -0.00120202 " transform="matrix(0.77474,0,0,0.77474,56.7669,155.4814)"/>
</g>
<g clip-path="url(#clip16)" clip-rule="nonzero">
<path style="fill:none;stroke-width:3;stroke-linecap:butt;stroke-linejoin:miter;stroke:rgb(45.097351%,65.489197%,82.743835%);stroke-opacity:1;stroke-miterlimit:4;" d="M 31.262036 42.099637 L 0.00153277 -0.00120202 " transform="matrix(0.77474,0,0,0.77474,140.6785,155.4814)"/>
</g>
<g clip-path="url(#clip17)" clip-rule="nonzero">
<path style="fill:none;stroke-width:3;stroke-linecap:butt;stroke-linejoin:miter;stroke:rgb(45.097351%,65.489197%,82.743835%);stroke-opacity:1;stroke-miterlimit:4;" d="M 50.339479 0.00229109 L -0.0000161345 16.761955 " transform="matrix(0.77474,0,0,0.77474,159.3672,83.7951)"/>
</g>
<g clip-path="url(#clip18)" clip-rule="nonzero">
<path style="fill:none;stroke-width:3;stroke-linecap:butt;stroke-linejoin:miter;stroke:rgb(45.097351%,65.489197%,82.743835%);stroke-opacity:1;stroke-miterlimit:4;" d="M 50.367698 16.7626 L -0.00204908 -0.00210555 " transform="matrix(0.77474,0,0,0.77474,22.1344,83.7946)"/>
</g>
<g clip-path="url(#clip19)" clip-rule="nonzero">
<path style="fill:none;stroke-width:3;stroke-linecap:butt;stroke-linejoin:miter;stroke:rgb(45.097351%,65.489197%,82.743835%);stroke-opacity:1;stroke-miterlimit:4;" d="M 30.886079 -0.00218622 L -0.00131496 99.11882 " transform="matrix(0.77474,0,0,0.77474,84.9893,70.8181)"/>
</g>
<g clip-path="url(#clip20)" clip-rule="nonzero">
<path style="fill:none;stroke-width:3;stroke-linecap:butt;stroke-linejoin:miter;stroke:rgb(45.097351%,65.489197%,82.743835%);stroke-opacity:1;stroke-miterlimit:4;" d="M 32.255096 99.165715 L 0.00131496 -0.00066958 " transform="matrix(0.77474,0,0,0.77474,111.6357,70.8013)"/>
</g>
<g clip-path="url(#clip21)" clip-rule="nonzero">
<path style="fill:none;stroke-width:3;stroke-linecap:butt;stroke-linejoin:miter;stroke:rgb(45.097351%,65.489197%,82.743835%);stroke-opacity:1;stroke-miterlimit:4;" d="M 84.423407 62.425822 L -0.000121008 0.000613109 " transform="matrix(0.77474,0,0,0.77474,69.004,100.8589)"/>
</g>
<g clip-path="url(#clip22)" clip-rule="nonzero">
<path style="fill:none;stroke-width:3;stroke-linecap:butt;stroke-linejoin:miter;stroke:rgb(45.097351%,65.489197%,82.743835%);stroke-opacity:1;stroke-miterlimit:4;" d="M 0.00246857 -0.00153277 C 34.747006 -0.00153277 69.496585 -0.00153277 104.241122 -0.00153277 " transform="matrix(0.77474,0,0,0.77474,69.8809,98.1965)"/>
</g>
<g clip-path="url(#clip23)" clip-rule="nonzero">
<path style="fill:none;stroke-width:3;stroke-linecap:butt;stroke-linejoin:miter;stroke:rgb(45.097351%,65.489197%,82.743835%);stroke-opacity:1;stroke-miterlimit:4;" d="M 82.998162 0.00066958 L 0.00152471 62.35529 " transform="matrix(0.77474,0,0,0.77474,87.2371,100.8862)"/>
</g>
<path style=" stroke:none;fill-rule:nonzero;fill:rgb(99.998474%,100%,100%);fill-opacity:1;" d="M 113.417969 256.042969 C 115.164062 257.792969 115.164062 260.628906 113.417969 262.375 C 111.667969 264.125 108.832031 264.125 107.085938 262.375 C 105.335938 260.628906 105.335938 257.792969 107.085938 256.042969 C 108.832031 254.296875 111.667969 254.296875 113.417969 256.042969 Z M 113.417969 256.042969 "/>
<g clip-path="url(#clip24)" clip-rule="nonzero">
<path style="fill:none;stroke-width:3;stroke-linecap:butt;stroke-linejoin:miter;stroke:rgb(45.097351%,65.489197%,82.743835%);stroke-opacity:1;stroke-dasharray:3,3;stroke-miterlimit:4;" d="M 9.867275 1.690334 C 12.121057 3.949158 12.121057 7.609662 9.867275 9.863443 C 7.608452 12.122267 3.947947 12.122267 1.694166 9.863443 C -0.564657 7.609662 -0.564657 3.949158 1.694166 1.690334 C 3.947947 -0.563447 7.608452 -0.563447 9.867275 1.690334 Z M 9.867275 1.690334 " transform="matrix(0.77474,0,0,0.77474,105.7734,254.7334)"/>
</g>
<g clip-path="url(#clip25)" clip-rule="nonzero">
<path style=" stroke:none;fill-rule:nonzero;fill:rgb(19.015503%,39.903259%,57.575989%);fill-opacity:1;" d="M 205.78125 322.421875 C 207.53125 324.167969 207.53125 327.003906 205.78125 328.75 C 204.035156 330.5 201.199219 330.5 199.449219 328.75 C 197.703125 327.003906 197.703125 324.167969 199.449219 322.421875 C 201.199219 320.671875 204.035156 320.671875 205.78125 322.421875 Z M 205.78125 322.421875 "/>
</g>
<g clip-path="url(#clip26)" clip-rule="nonzero">
<path style=" stroke:none;fill-rule:nonzero;fill:rgb(19.015503%,39.903259%,57.575989%);fill-opacity:1;" d="M 170.734375 431.734375 C 172.484375 433.480469 172.484375 436.316406 170.734375 438.066406 C 168.984375 439.8125 166.152344 439.8125 164.402344 438.066406 C 162.65625 436.316406 162.65625 433.480469 164.402344 431.734375 C 166.152344 429.984375 168.984375 429.984375 170.734375 431.734375 Z M 170.734375 431.734375 "/>
</g>
<path style=" stroke:none;fill-rule:nonzero;fill:rgb(19.015503%,39.903259%,57.575989%);fill-opacity:1;" d="M 57.261719 431.734375 C 59.011719 433.480469 59.011719 436.316406 57.261719 438.066406 C 55.515625 439.8125 52.679688 439.8125 50.929688 438.066406 C 49.183594 436.316406 49.183594 433.480469 50.929688 431.734375 C 52.679688 429.984375 55.515625 429.984375 57.261719 431.734375 Z M 57.261719 431.734375 "/>
<g clip-path="url(#clip27)" clip-rule="nonzero">
<path style=" stroke:none;fill-rule:nonzero;fill:rgb(19.015503%,39.903259%,57.575989%);fill-opacity:1;" d="M 21.050781 322.421875 C 22.800781 324.167969 22.800781 327.003906 21.050781 328.75 C 19.304688 330.5 16.46875 330.5 14.71875 328.75 C 12.972656 327.003906 12.972656 324.167969 14.71875 322.421875 C 16.46875 320.671875 19.304688 320.671875 21.050781 322.421875 Z M 21.050781 322.421875 "/>
</g>
<path style=" stroke:none;fill-rule:nonzero;fill:rgb(19.015503%,39.903259%,57.575989%);fill-opacity:1;" d="M 113.417969 306.582031 C 115.164062 308.332031 115.164062 311.164062 113.417969 312.914062 C 111.667969 314.664062 108.832031 314.664062 107.085938 312.914062 C 105.335938 311.164062 105.335938 308.332031 107.085938 306.582031 C 108.832031 304.835938 111.667969 304.835938 113.417969 306.582031 Z M 113.417969 306.582031 "/>
<g clip-path="url(#clip28)" clip-rule="nonzero">
<path style=" stroke:none;fill-rule:nonzero;fill:rgb(19.015503%,39.903259%,57.575989%);fill-opacity:1;" d="M 158.285156 338.234375 C 160.03125 339.984375 160.03125 342.820312 158.285156 344.566406 C 156.535156 346.316406 153.699219 346.316406 151.953125 344.566406 C 150.203125 342.820312 150.203125 339.984375 151.953125 338.234375 C 153.699219 336.488281 156.535156 336.488281 158.285156 338.234375 Z M 158.285156 338.234375 "/>
</g>
<path style=" stroke:none;fill-rule:nonzero;fill:rgb(19.015503%,39.903259%,57.575989%);fill-opacity:1;" d="M 141.175781 391.925781 C 142.921875 393.675781 142.921875 396.507812 141.175781 398.257812 C 139.425781 400.007812 136.589844 400.007812 134.84375 398.257812 C 133.09375 396.507812 133.09375 393.675781 134.84375 391.925781 C 136.589844 390.175781 139.425781 390.175781 141.175781 391.925781 Z M 141.175781 391.925781 "/>
<g clip-path="url(#clip29)" clip-rule="nonzero">
<path style=" stroke:none;fill-rule:nonzero;fill:rgb(19.015503%,39.903259%,57.575989%);fill-opacity:1;" d="M 86.824219 391.925781 C 88.570312 393.675781 88.570312 396.507812 86.824219 398.257812 C 85.074219 400.007812 82.238281 400.007812 80.492188 398.257812 C 78.742188 396.507812 78.742188 393.675781 80.492188 391.925781 C 82.238281 390.175781 85.074219 390.175781 86.824219 391.925781 Z M 86.824219 391.925781 "/>
</g>
<g clip-path="url(#clip30)" clip-rule="nonzero">
<path style=" stroke:none;fill-rule:nonzero;fill:rgb(19.015503%,39.903259%,57.575989%);fill-opacity:1;" d="M 68.570312 338.234375 C 70.316406 339.984375 70.316406 342.820312 68.570312 344.566406 C 66.820312 346.316406 63.984375 346.316406 62.238281 344.566406 C 60.488281 342.820312 60.488281 339.984375 62.238281 338.234375 C 63.984375 336.488281 66.820312 336.488281 68.570312 338.234375 Z M 68.570312 338.234375 "/>
</g>
<g clip-path="url(#clip31)" clip-rule="nonzero">
<path style="fill:none;stroke-width:3;stroke-linecap:butt;stroke-linejoin:miter;stroke:rgb(45.097351%,65.489197%,82.743835%);stroke-opacity:1;stroke-miterlimit:4;" d="M 0.00211361 78.046683 L 108.607153 0.00130689 " transform="matrix(0.77474,0,0,0.77474,21.5218,262.5068)"/>
</g>
<g clip-path="url(#clip32)" clip-rule="nonzero">
<path style="fill:none;stroke-width:3;stroke-linecap:butt;stroke-linejoin:miter;stroke:rgb(45.097351%,65.489197%,82.743835%);stroke-opacity:1;stroke-miterlimit:4;" d="M 108.605225 78.044489 L 0.000185546 -0.000887395 " transform="matrix(0.77474,0,0,0.77474,114.8397,262.5085)"/>
</g>
<g clip-path="url(#clip33)" clip-rule="nonzero">
<path style="fill:none;stroke-width:3;stroke-linecap:butt;stroke-linejoin:miter;stroke:rgb(45.097351%,65.489197%,82.743835%);stroke-opacity:1;stroke-miterlimit:4;" d="M -0.000774454 52.167246 C -0.000774454 34.77733 -0.000774454 17.387415 -0.000774454 -0.00250084 " transform="matrix(0.77474,0,0,0.77474,110.2506,264.8535)"/>
</g>
<g clip-path="url(#clip34)" clip-rule="nonzero">
<path style="fill:none;stroke-width:3;stroke-linecap:butt;stroke-linejoin:miter;stroke:rgb(67.440796%,82.798767%,45.191956%);stroke-opacity:1;stroke-miterlimit:4;" d="M 0.00206521 130.090831 L 41.709627 0.00175866 " transform="matrix(0.77474,0,0,0.77474,168.9359,329.8502)"/>
</g>
<g clip-path="url(#clip35)" clip-rule="nonzero">
<path style="fill:none;stroke-width:3;stroke-linecap:butt;stroke-linejoin:miter;stroke:rgb(67.440796%,82.798767%,45.191956%);stroke-opacity:1;stroke-miterlimit:4;" d="M -0.00192 -0.0016683 C 44.972869 -0.0016683 89.942616 -0.0016683 134.912363 -0.0016683 " transform="matrix(0.77474,0,0,0.77474,58.5718,434.89973)"/>
</g>
<g clip-path="url(#clip36)" clip-rule="nonzero">
<path style="fill:none;stroke-width:3;stroke-linecap:butt;stroke-linejoin:miter;stroke:rgb(67.440796%,82.798767%,45.191956%);stroke-opacity:1;stroke-miterlimit:4;" d="M -0.00081479 -0.00124235 L 43.103386 130.123125 " transform="matrix(0.77474,0,0,0.77474,19.2936,329.8369)"/>
</g>
<g clip-path="url(#clip37)" clip-rule="nonzero">
<path style="fill:none;stroke-width:3;stroke-linecap:butt;stroke-linejoin:miter;stroke:rgb(45.097351%,65.489197%,82.743835%);stroke-opacity:1;stroke-miterlimit:4;" d="M -0.00164571 42.101588 L 31.2639 0.000748639 " transform="matrix(0.77474,0,0,0.77474,56.7669,398.68692)"/>
</g>
<g clip-path="url(#clip38)" clip-rule="nonzero">
<path style="fill:none;stroke-width:3;stroke-linecap:butt;stroke-linejoin:miter;stroke:rgb(45.097351%,65.489197%,82.743835%);stroke-opacity:1;stroke-miterlimit:4;" d="M 31.262036 42.101588 L 0.00153277 0.000748639 " transform="matrix(0.77474,0,0,0.77474,140.6785,398.68692)"/>
</g>
<g clip-path="url(#clip39)" clip-rule="nonzero">
<path style="fill:none;stroke-width:3;stroke-linecap:butt;stroke-linejoin:miter;stroke:rgb(67.440796%,82.798767%,45.191956%);stroke-opacity:1;stroke-miterlimit:4;" d="M 50.339479 -0.000903529 L -0.0000161345 16.763802 " transform="matrix(0.77474,0,0,0.77474,159.3672,327.0007)"/>
</g>
<g clip-path="url(#clip40)" clip-rule="nonzero">
<path style="fill:none;stroke-width:3;stroke-linecap:butt;stroke-linejoin:miter;stroke:rgb(67.440796%,82.798767%,45.191956%);stroke-opacity:1;stroke-miterlimit:4;" d="M 50.367698 16.764576 L -0.00204908 -0.000129076 " transform="matrix(0.77474,0,0,0.77474,22.1344,327.0001)"/>
</g>
<g clip-path="url(#clip41)" clip-rule="nonzero">
<path style="fill:none;stroke-width:3;stroke-linecap:butt;stroke-linejoin:miter;stroke:rgb(67.440796%,82.798767%,45.191956%);stroke-opacity:1;stroke-miterlimit:4;" d="M 30.886079 -0.000338824 L -0.00131496 99.120667 " transform="matrix(0.77474,0,0,0.77474,84.9893,314.0237)"/>
</g>
<g clip-path="url(#clip42)" clip-rule="nonzero">
<path style="fill:none;stroke-width:3;stroke-linecap:butt;stroke-linejoin:miter;stroke:rgb(67.440796%,82.798767%,45.191956%);stroke-opacity:1;stroke-miterlimit:4;" d="M 32.255096 99.16252 L 0.00131496 0.00117782 " transform="matrix(0.77474,0,0,0.77474,111.6357,314.0069)"/>
</g>
<g clip-path="url(#clip43)" clip-rule="nonzero">
<path style="fill:none;stroke-width:3;stroke-linecap:butt;stroke-linejoin:miter;stroke:rgb(67.440796%,82.798767%,45.191956%);stroke-opacity:1;stroke-miterlimit:4;" d="M 84.423407 62.427798 L -0.000121008 -0.00245244 " transform="matrix(0.77474,0,0,0.77474,69.004,344.0644)"/>
</g>
<g clip-path="url(#clip44)" clip-rule="nonzero">
<path style="fill:none;stroke-width:3;stroke-linecap:butt;stroke-linejoin:miter;stroke:rgb(45.097351%,65.489197%,82.743835%);stroke-opacity:1;stroke-miterlimit:4;" d="M 0.00246857 0.000443697 C 34.747006 0.000443697 69.496585 0.000443697 104.241122 0.000443697 " transform="matrix(0.77474,0,0,0.77474,69.8809,341.402)"/>
</g>
<g clip-path="url(#clip45)" clip-rule="nonzero">
<path style="fill:none;stroke-width:3;stroke-linecap:butt;stroke-linejoin:miter;stroke:rgb(67.440796%,82.798767%,45.191956%);stroke-opacity:1;stroke-miterlimit:4;" d="M 82.998162 -0.00239597 L 0.00152471 62.357267 " transform="matrix(0.77474,0,0,0.77474,87.2371,344.0917)"/>
</g>
<path style=" stroke:none;fill-rule:nonzero;fill:rgb(19.015503%,39.903259%,57.575989%);fill-opacity:1;" d="M 379.363281 256.042969 C 381.109375 257.792969 381.109375 260.628906 379.363281 262.375 C 377.613281 264.125 374.777344 264.125 373.03125 262.375 C 371.28125 260.628906 371.28125 257.792969 373.03125 256.042969 C 374.777344 254.296875 377.613281 254.296875 379.363281 256.042969 Z M 379.363281 256.042969 "/>
<g clip-path="url(#clip46)" clip-rule="nonzero">
<path style=" stroke:none;fill-rule:nonzero;fill:rgb(19.015503%,39.903259%,57.575989%);fill-opacity:1;" d="M 471.726562 322.421875 C 473.476562 324.167969 473.476562 327.003906 471.726562 328.75 C 469.980469 330.5 467.144531 330.5 465.394531 328.75 C 463.648438 327.003906 463.648438 324.167969 465.394531 322.421875 C 467.144531 320.671875 469.980469 320.671875 471.726562 322.421875 Z M 471.726562 322.421875 "/>
</g>
<path style=" stroke:none;fill-rule:nonzero;fill:rgb(19.015503%,39.903259%,57.575989%);fill-opacity:1;" d="M 436.679688 431.734375 C 438.429688 433.480469 438.429688 436.316406 436.679688 438.066406 C 434.933594 439.8125 432.097656 439.8125 430.347656 438.066406 C 428.601562 436.316406 428.601562 433.480469 430.347656 431.734375 C 432.097656 429.984375 434.933594 429.984375 436.679688 431.734375 Z M 436.679688 431.734375 "/>
<path style=" stroke:none;fill-rule:nonzero;fill:rgb(19.015503%,39.903259%,57.575989%);fill-opacity:1;" d="M 323.210938 431.734375 C 324.957031 433.480469 324.957031 436.316406 323.210938 438.066406 C 321.460938 439.8125 318.625 439.8125 316.878906 438.066406 C 315.128906 436.316406 315.128906 433.480469 316.878906 431.734375 C 318.625 429.984375 321.460938 429.984375 323.210938 431.734375 Z M 323.210938 431.734375 "/>
<g clip-path="url(#clip47)" clip-rule="nonzero">
<path style=" stroke:none;fill-rule:nonzero;fill:rgb(19.015503%,39.903259%,57.575989%);fill-opacity:1;" d="M 286.996094 322.421875 C 288.746094 324.167969 288.746094 327.003906 286.996094 328.75 C 285.25 330.5 282.414062 330.5 280.664062 328.75 C 278.917969 327.003906 278.917969 324.167969 280.664062 322.421875 C 282.414062 320.671875 285.25 320.671875 286.996094 322.421875 Z M 286.996094 322.421875 "/>
</g>
<path style=" stroke:none;fill-rule:nonzero;fill:rgb(99.998474%,100%,100%);fill-opacity:1;" d="M 379.363281 306.582031 C 381.109375 308.332031 381.109375 311.164062 379.363281 312.914062 C 377.613281 314.664062 374.777344 314.664062 373.03125 312.914062 C 371.28125 311.164062 371.28125 308.332031 373.03125 306.582031 C 374.777344 304.835938 377.613281 304.835938 379.363281 306.582031 Z M 379.363281 306.582031 "/>
<g clip-path="url(#clip48)" clip-rule="nonzero">
<path style="fill:none;stroke-width:3;stroke-linecap:butt;stroke-linejoin:miter;stroke:rgb(45.097351%,65.489197%,82.743835%);stroke-opacity:1;stroke-dasharray:3,3;stroke-miterlimit:4;" d="M 9.866388 1.692093 C 12.120169 3.950916 12.120169 7.606378 9.866388 9.865202 C 7.607564 12.124025 3.94706 12.124025 1.693279 9.865202 C -0.565545 7.606378 -0.565545 3.950916 1.693279 1.692093 C 3.94706 -0.566731 7.607564 -0.566731 9.866388 1.692093 Z M 9.866388 1.692093 " transform="matrix(0.77474,0,0,0.77474,371.7194,305.2711)"/>
</g>
<g clip-path="url(#clip49)" clip-rule="nonzero">
<path style=" stroke:none;fill-rule:nonzero;fill:rgb(19.015503%,39.903259%,57.575989%);fill-opacity:1;" d="M 424.230469 338.234375 C 425.980469 339.984375 425.980469 342.820312 424.230469 344.566406 C 422.480469 346.316406 419.648438 346.316406 417.898438 344.566406 C 416.148438 342.820312 416.148438 339.984375 417.898438 338.234375 C 419.648438 336.488281 422.480469 336.488281 424.230469 338.234375 Z M 424.230469 338.234375 "/>
</g>
<path style=" stroke:none;fill-rule:nonzero;fill:rgb(19.015503%,39.903259%,57.575989%);fill-opacity:1;" d="M 407.121094 391.925781 C 408.871094 393.675781 408.871094 396.507812 407.121094 398.257812 C 405.371094 400.007812 402.539062 400.007812 400.789062 398.257812 C 399.039062 396.507812 399.039062 393.675781 400.789062 391.925781 C 402.539062 390.175781 405.371094 390.175781 407.121094 391.925781 Z M 407.121094 391.925781 "/>
<g clip-path="url(#clip50)" clip-rule="nonzero">
<path style=" stroke:none;fill-rule:nonzero;fill:rgb(19.015503%,39.903259%,57.575989%);fill-opacity:1;" d="M 352.769531 391.925781 C 354.515625 393.675781 354.515625 396.507812 352.769531 398.257812 C 351.019531 400.007812 348.1875 400.007812 346.4375 398.257812 C 344.6875 396.507812 344.6875 393.675781 346.4375 391.925781 C 348.1875 390.175781 351.019531 390.175781 352.769531 391.925781 Z M 352.769531 391.925781 "/>
</g>
<g clip-path="url(#clip51)" clip-rule="nonzero">
<path style=" stroke:none;fill-rule:nonzero;fill:rgb(19.015503%,39.903259%,57.575989%);fill-opacity:1;" d="M 334.515625 338.234375 C 336.265625 339.984375 336.265625 342.820312 334.515625 344.566406 C 332.765625 346.316406 329.933594 346.316406 328.183594 344.566406 C 326.433594 342.820312 326.433594 339.984375 328.183594 338.234375 C 329.933594 336.488281 332.765625 336.488281 334.515625 338.234375 Z M 334.515625 338.234375 "/>
</g>
<g clip-path="url(#clip52)" clip-rule="nonzero">
<path style="fill:none;stroke-width:3;stroke-linecap:butt;stroke-linejoin:miter;stroke:rgb(67.440796%,82.798767%,45.191956%);stroke-opacity:1;stroke-miterlimit:4;" d="M 0.00135529 78.92827 L 109.831605 0.000540504 " transform="matrix(0.77474,0,0,0.77474,287.4677,261.8238)"/>
</g>
<g clip-path="url(#clip53)" clip-rule="nonzero">
<path style="fill:none;stroke-width:3;stroke-linecap:butt;stroke-linejoin:miter;stroke:rgb(67.440796%,82.798767%,45.191956%);stroke-opacity:1;stroke-miterlimit:4;" d="M 109.83417 78.92827 L -0.00112134 0.000540504 " transform="matrix(0.77474,0,0,0.77474,379.8329,261.8238)"/>
</g>
<g clip-path="url(#clip54)" clip-rule="nonzero">
<path style="fill:none;stroke-width:3;stroke-linecap:butt;stroke-linejoin:miter;stroke:rgb(45.097351%,65.489197%,82.743835%);stroke-opacity:1;stroke-miterlimit:4;" d="M -0.00166185 52.174272 C -0.00166185 34.784357 -0.00166185 17.389399 -0.00166185 -0.000516303 " transform="matrix(0.77474,0,0,0.77474,376.1966,263.6879)"/>
</g>
<g clip-path="url(#clip55)" clip-rule="nonzero">
<path style="fill:none;stroke-width:3;stroke-linecap:butt;stroke-linejoin:miter;stroke:rgb(67.440796%,82.798767%,45.191956%);stroke-opacity:1;stroke-miterlimit:4;" d="M 0.00130689 130.090831 L 41.708869 0.00175866 " transform="matrix(0.77474,0,0,0.77474,434.8818,329.8502)"/>
</g>
<g clip-path="url(#clip56)" clip-rule="nonzero">
<path style="fill:none;stroke-width:3;stroke-linecap:butt;stroke-linejoin:miter;stroke:rgb(45.097351%,65.489197%,82.743835%);stroke-opacity:1;stroke-miterlimit:4;" d="M 0.00223462 -0.0016683 C 44.971982 -0.0016683 89.941728 -0.0016683 134.911475 -0.0016683 " transform="matrix(0.77474,0,0,0.77474,324.5178,434.89973)"/>
</g>
<g clip-path="url(#clip57)" clip-rule="nonzero">
<path style="fill:none;stroke-width:3;stroke-linecap:butt;stroke-linejoin:miter;stroke:rgb(67.440796%,82.798767%,45.191956%);stroke-opacity:1;stroke-miterlimit:4;" d="M -0.00170218 -0.00124235 L 43.107541 130.123125 " transform="matrix(0.77474,0,0,0.77474,285.2396,329.8369)"/>
</g>
<g clip-path="url(#clip58)" clip-rule="nonzero">
<path style="fill:none;stroke-width:3;stroke-linecap:butt;stroke-linejoin:miter;stroke:rgb(67.440796%,82.798767%,45.191956%);stroke-opacity:1;stroke-miterlimit:4;" d="M -0.00240403 42.101588 L 31.263142 0.000748639 " transform="matrix(0.77474,0,0,0.77474,322.7128,398.68692)"/>
</g>
<g clip-path="url(#clip59)" clip-rule="nonzero">
<path style="fill:none;stroke-width:3;stroke-linecap:butt;stroke-linejoin:miter;stroke:rgb(67.440796%,82.798767%,45.191956%);stroke-opacity:1;stroke-miterlimit:4;" d="M 31.261278 42.101588 L 0.000774454 0.000748639 " transform="matrix(0.77474,0,0,0.77474,406.6244,398.68692)"/>
</g>
<g clip-path="url(#clip60)" clip-rule="nonzero">
<path style="fill:none;stroke-width:3;stroke-linecap:butt;stroke-linejoin:miter;stroke:rgb(45.097351%,65.489197%,82.743835%);stroke-opacity:1;stroke-miterlimit:4;" d="M 50.338591 -0.000903529 L -0.000903529 16.763802 " transform="matrix(0.77474,0,0,0.77474,425.3132,327.0007)"/>
</g>
<g clip-path="url(#clip61)" clip-rule="nonzero">
<path style="fill:none;stroke-width:3;stroke-linecap:butt;stroke-linejoin:miter;stroke:rgb(45.097351%,65.489197%,82.743835%);stroke-opacity:1;stroke-miterlimit:4;" d="M 50.36681 16.764576 L 0.00210555 -0.000129076 " transform="matrix(0.77474,0,0,0.77474,288.0804,327.0001)"/>
</g>
<g clip-path="url(#clip62)" clip-rule="nonzero">
<path style="fill:none;stroke-width:3;stroke-linecap:butt;stroke-linejoin:miter;stroke:rgb(45.097351%,65.489197%,82.743835%);stroke-opacity:1;stroke-miterlimit:4;" d="M 30.436452 -0.000879328 L -0.00220235 97.683152 " transform="matrix(0.77474,0,0,0.77474,350.9353,315.1374)"/>
</g>
<g clip-path="url(#clip63)" clip-rule="nonzero">
<path style="fill:none;stroke-width:3;stroke-linecap:butt;stroke-linejoin:miter;stroke:rgb(45.097351%,65.489197%,82.743835%);stroke-opacity:1;stroke-miterlimit:4;" d="M 31.787987 97.729264 L -0.00192807 -0.00014521 " transform="matrix(0.77474,0,0,0.77474,377.9429,315.1173)"/>
</g>
<g clip-path="url(#clip64)" clip-rule="nonzero">
<path style="fill:none;stroke-width:3;stroke-linecap:butt;stroke-linejoin:miter;stroke:rgb(67.440796%,82.798767%,45.191956%);stroke-opacity:1;stroke-miterlimit:4;" d="M 84.422519 62.427798 L -0.0010084 -0.00245244 " transform="matrix(0.77474,0,0,0.77474,334.95,344.0644)"/>
</g>
<g clip-path="url(#clip65)" clip-rule="nonzero">
<path style="fill:none;stroke-width:3;stroke-linecap:butt;stroke-linejoin:miter;stroke:rgb(67.440796%,82.798767%,45.191956%);stroke-opacity:1;stroke-miterlimit:4;" d="M 0.00171025 0.000443697 C 34.746247 0.000443697 69.495826 0.000443697 104.240363 0.000443697 " transform="matrix(0.77474,0,0,0.77474,335.8268,341.402)"/>
</g>
<g clip-path="url(#clip66)" clip-rule="nonzero">
<path style="fill:none;stroke-width:3;stroke-linecap:butt;stroke-linejoin:miter;stroke:rgb(67.440796%,82.798767%,45.191956%);stroke-opacity:1;stroke-miterlimit:4;" d="M 82.997403 -0.00239597 L 0.000766387 62.357267 " transform="matrix(0.77474,0,0,0.77474,353.183,344.0917)"/>
</g>
<path style=" stroke:none;fill-rule:nonzero;fill:rgb(19.015503%,39.903259%,57.575989%);fill-opacity:1;" d="M 379.363281 12.839844 C 381.109375 14.585938 381.109375 17.421875 379.363281 19.171875 C 377.613281 20.917969 374.777344 20.917969 373.03125 19.171875 C 371.28125 17.421875 371.28125 14.585938 373.03125 12.839844 C 374.777344 11.089844 377.613281 11.089844 379.363281 12.839844 Z M 379.363281 12.839844 "/>
<g clip-path="url(#clip67)" clip-rule="nonzero">
<path style=" stroke:none;fill-rule:nonzero;fill:rgb(19.015503%,39.903259%,57.575989%);fill-opacity:1;" d="M 471.726562 79.214844 C 473.476562 80.964844 473.476562 83.796875 471.726562 85.546875 C 469.980469 87.292969 467.144531 87.292969 465.394531 85.546875 C 463.648438 83.796875 463.648438 80.964844 465.394531 79.214844 C 467.144531 77.464844 469.980469 77.464844 471.726562 79.214844 Z M 471.726562 79.214844 "/>
</g>
<g clip-path="url(#clip68)" clip-rule="nonzero">
<path style=" stroke:none;fill-rule:nonzero;fill:rgb(19.015503%,39.903259%,57.575989%);fill-opacity:1;" d="M 436.679688 188.527344 C 438.429688 190.277344 438.429688 193.113281 436.679688 194.859375 C 434.933594 196.609375 432.097656 196.609375 430.347656 194.859375 C 428.601562 193.113281 428.601562 190.277344 430.347656 188.527344 C 432.097656 186.78125 434.933594 186.78125 436.679688 188.527344 Z M 436.679688 188.527344 "/>
</g>
<g clip-path="url(#clip69)" clip-rule="nonzero">
<path style=" stroke:none;fill-rule:nonzero;fill:rgb(19.015503%,39.903259%,57.575989%);fill-opacity:1;" d="M 323.210938 188.527344 C 324.957031 190.277344 324.957031 193.113281 323.210938 194.859375 C 321.460938 196.609375 318.625 196.609375 316.878906 194.859375 C 315.128906 193.113281 315.128906 190.277344 316.878906 188.527344 C 318.625 186.78125 321.460938 186.78125 323.210938 188.527344 Z M 323.210938 188.527344 "/>
</g>
<g clip-path="url(#clip70)" clip-rule="nonzero">
<path style=" stroke:none;fill-rule:nonzero;fill:rgb(19.015503%,39.903259%,57.575989%);fill-opacity:1;" d="M 286.996094 79.214844 C 288.746094 80.964844 288.746094 83.796875 286.996094 85.546875 C 285.25 87.292969 282.414062 87.292969 280.664062 85.546875 C 278.917969 83.796875 278.917969 80.964844 280.664062 79.214844 C 282.414062 77.464844 285.25 77.464844 286.996094 79.214844 Z M 286.996094 79.214844 "/>
</g>
<g clip-path="url(#clip71)" clip-rule="nonzero">
<path style=" stroke:none;fill-rule:nonzero;fill:rgb(19.015503%,39.903259%,57.575989%);fill-opacity:1;" d="M 379.363281 63.375 C 381.109375 65.125 381.109375 67.960938 379.363281 69.707031 C 377.613281 71.457031 374.777344 71.457031 373.03125 69.707031 C 371.28125 67.960938 371.28125 65.125 373.03125 63.375 C 374.777344 61.628906 377.613281 61.628906 379.363281 63.375 Z M 379.363281 63.375 "/>
</g>
<path style=" stroke:none;fill-rule:nonzero;fill:rgb(19.015503%,39.903259%,57.575989%);fill-opacity:1;" d="M 424.230469 95.03125 C 425.980469 96.777344 425.980469 99.613281 424.230469 101.363281 C 422.480469 103.109375 419.648438 103.109375 417.898438 101.363281 C 416.148438 99.613281 416.148438 96.777344 417.898438 95.03125 C 419.648438 93.28125 422.480469 93.28125 424.230469 95.03125 Z M 424.230469 95.03125 "/>
<path style=" stroke:none;fill-rule:nonzero;fill:rgb(19.015503%,39.903259%,57.575989%);fill-opacity:1;" d="M 407.121094 148.71875 C 408.871094 150.46875 408.871094 153.304688 407.121094 155.050781 C 405.371094 156.800781 402.539062 156.800781 400.789062 155.050781 C 399.039062 153.304688 399.039062 150.46875 400.789062 148.71875 C 402.539062 146.972656 405.371094 146.972656 407.121094 148.71875 Z M 407.121094 148.71875 "/>
<g clip-path="url(#clip72)" clip-rule="nonzero">
<path style=" stroke:none;fill-rule:nonzero;fill:rgb(19.015503%,39.903259%,57.575989%);fill-opacity:1;" d="M 352.769531 148.71875 C 354.515625 150.46875 354.515625 153.304688 352.769531 155.050781 C 351.019531 156.800781 348.1875 156.800781 346.4375 155.050781 C 344.6875 153.304688 344.6875 150.46875 346.4375 148.71875 C 348.1875 146.972656 351.019531 146.972656 352.769531 148.71875 Z M 352.769531 148.71875 "/>
</g>
<g clip-path="url(#clip73)" clip-rule="nonzero">
<path style=" stroke:none;fill-rule:nonzero;fill:rgb(19.015503%,39.903259%,57.575989%);fill-opacity:1;" d="M 334.515625 95.03125 C 336.265625 96.777344 336.265625 99.613281 334.515625 101.363281 C 332.765625 103.109375 329.933594 103.109375 328.183594 101.363281 C 326.433594 99.613281 326.433594 96.777344 328.183594 95.03125 C 329.933594 93.28125 332.765625 93.28125 334.515625 95.03125 Z M 334.515625 95.03125 "/>
</g>
<g clip-path="url(#clip74)" clip-rule="nonzero">
<path style="fill:none;stroke-width:3;stroke-linecap:butt;stroke-linejoin:miter;stroke:rgb(45.097351%,65.489197%,82.743835%);stroke-opacity:1;stroke-miterlimit:4;" d="M 0.00135529 78.926423 L 109.831605 -0.00130689 " transform="matrix(0.77474,0,0,0.77474,287.4677,18.6182)"/>
</g>
<g clip-path="url(#clip75)" clip-rule="nonzero">
<path style="fill:none;stroke-width:3;stroke-linecap:butt;stroke-linejoin:miter;stroke:rgb(45.097351%,65.489197%,82.743835%);stroke-opacity:1;stroke-miterlimit:4;" d="M 109.83417 78.926423 L -0.00112134 -0.00130689 " transform="matrix(0.77474,0,0,0.77474,379.8329,18.6182)"/>
</g>
<g clip-path="url(#clip76)" clip-rule="nonzero">
<path style="fill:none;stroke-width:3;stroke-linecap:butt;stroke-linejoin:miter;stroke:rgb(82.743835%,51.763916%,45.097351%);stroke-opacity:1;stroke-miterlimit:4;" d="M -0.00166185 42.522005 L -0.00166185 41.024526 C -0.00166185 27.350577 -0.00166185 13.676628 -0.00166185 -0.0023637 " transform="matrix(0.77474,0,0,0.77474,376.1966,20.4823)"/>
</g>
<g clip-path="url(#clip77)" clip-rule="nonzero">
<path style="fill:none;stroke-width:1.363636;stroke-linecap:butt;stroke-linejoin:round;stroke:rgb(82.743835%,51.763916%,45.097351%);stroke-opacity:1;stroke-miterlimit:10;" d="M -0.000744385 0.000308021 L 2.999256 5.001072 L 5.999256 0.000308021 M 2.999256 0.000308021 L 2.999256 5.001072 " transform="matrix(1.704427,0,0,1.704427,371.0833,52.2651)"/>
</g>
<g clip-path="url(#clip78)" clip-rule="nonzero">
<path style="fill:none;stroke-width:3;stroke-linecap:butt;stroke-linejoin:miter;stroke:rgb(45.097351%,65.489197%,82.743835%);stroke-opacity:1;stroke-miterlimit:4;" d="M 0.00130689 130.088855 L 41.708869 -0.000217815 " transform="matrix(0.77474,0,0,0.77474,434.8818,86.6447)"/>
</g>
<g clip-path="url(#clip79)" clip-rule="nonzero">
<path style="fill:none;stroke-width:3;stroke-linecap:butt;stroke-linejoin:miter;stroke:rgb(45.097351%,65.489197%,82.743835%);stroke-opacity:1;stroke-miterlimit:4;" d="M 0.00223462 0.00143597 C 44.971982 0.00143597 89.941728 0.00143597 134.911475 0.00143597 " transform="matrix(0.77474,0,0,0.77474,324.5178,191.6942)"/>
</g>
<g clip-path="url(#clip80)" clip-rule="nonzero">
<path style="fill:none;stroke-width:3;stroke-linecap:butt;stroke-linejoin:miter;stroke:rgb(45.097351%,65.489197%,82.743835%);stroke-opacity:1;stroke-miterlimit:4;" d="M -0.00170218 0.00195227 L 43.107541 130.121277 " transform="matrix(0.77474,0,0,0.77474,285.2396,86.6313)"/>
</g>
<g clip-path="url(#clip81)" clip-rule="nonzero">
<path style="fill:none;stroke-width:3;stroke-linecap:butt;stroke-linejoin:miter;stroke:rgb(82.743835%,51.763916%,45.097351%);stroke-opacity:1;stroke-miterlimit:4;" d="M 6.648016 33.150058 L 7.540453 31.945016 L 31.263142 -0.00120202 " transform="matrix(0.77474,0,0,0.77474,322.7128,155.4814)"/>
</g>
<path style="fill:none;stroke-width:1.363636;stroke-linecap:butt;stroke-linejoin:round;stroke:rgb(82.743835%,51.763916%,45.097351%);stroke-opacity:1;stroke-miterlimit:10;" d="M -0.0000917707 0.000940504 L 3.001249 5.000069 L 5.999067 -0.000627053 M 2.999488 0.000156725 L 3.001249 5.000069 " transform="matrix(1.368416,1.016125,-1.016125,1.368416,324.4503,177.1824)"/>
<g clip-path="url(#clip82)" clip-rule="nonzero">
<path style="fill:none;stroke-width:3;stroke-linecap:butt;stroke-linejoin:miter;stroke:rgb(45.097351%,65.489197%,82.743835%);stroke-opacity:1;stroke-miterlimit:4;" d="M 31.261278 42.099637 L 0.000774454 -0.00120202 " transform="matrix(0.77474,0,0,0.77474,406.6244,155.4814)"/>
</g>
<g clip-path="url(#clip83)" clip-rule="nonzero">
<path style="fill:none;stroke-width:3;stroke-linecap:butt;stroke-linejoin:miter;stroke:rgb(45.097351%,65.489197%,82.743835%);stroke-opacity:1;stroke-miterlimit:4;" d="M 50.338591 0.00229109 L -0.000903529 16.761955 " transform="matrix(0.77474,0,0,0.77474,425.3132,83.7951)"/>
</g>
<g clip-path="url(#clip84)" clip-rule="nonzero">
<path style="fill:none;stroke-width:3;stroke-linecap:butt;stroke-linejoin:miter;stroke:rgb(45.097351%,65.489197%,82.743835%);stroke-opacity:1;stroke-miterlimit:4;" d="M 50.36681 16.7626 L 0.00210555 -0.00210555 " transform="matrix(0.77474,0,0,0.77474,288.0804,83.7946)"/>
</g>
<g clip-path="url(#clip85)" clip-rule="nonzero">
<path style="fill:none;stroke-width:3;stroke-linecap:butt;stroke-linejoin:miter;stroke:rgb(45.097351%,65.489197%,82.743835%);stroke-opacity:1;stroke-miterlimit:4;" d="M 30.885192 -0.00218622 L -0.00220235 99.11882 " transform="matrix(0.77474,0,0,0.77474,350.9353,70.8181)"/>
</g>
<g clip-path="url(#clip86)" clip-rule="nonzero">
<path style="fill:none;stroke-width:3;stroke-linecap:butt;stroke-linejoin:miter;stroke:rgb(82.743835%,51.763916%,45.097351%);stroke-opacity:1;stroke-miterlimit:4;" d="M 28.805469 88.562354 L 28.341603 87.135463 L 0.000427563 -0.00066958 " transform="matrix(0.77474,0,0,0.77474,377.5817,70.8013)"/>
</g>
<path style="fill:none;stroke-width:1.363636;stroke-linecap:butt;stroke-linejoin:round;stroke:rgb(82.743835%,51.763916%,45.097351%);stroke-opacity:1;stroke-miterlimit:10;" d="M -0.000288557 0.000661923 L 3.001134 4.999185 L 6.000709 0.000404178 M 3.00021 0.000533051 L 3.001134 4.999185 " transform="matrix(1.620847,-0.527186,0.527186,1.620847,394.6759,139.8894)"/>
<g clip-path="url(#clip87)" clip-rule="nonzero">
<path style="fill:none;stroke-width:3;stroke-linecap:butt;stroke-linejoin:miter;stroke:rgb(82.743835%,51.763916%,45.097351%);stroke-opacity:1;stroke-miterlimit:4;" d="M 84.422519 62.425822 L 10.173781 7.523302 L 8.963697 6.630865 " transform="matrix(0.77474,0,0,0.77474,334.95,100.8589)"/>
</g>
<path style="fill:none;stroke-width:1.363636;stroke-linecap:butt;stroke-linejoin:round;stroke:rgb(82.743835%,51.763916%,45.097351%);stroke-opacity:1;stroke-miterlimit:10;" d="M -0.000491624 -0.000288623 L 2.999621 5.001198 L 6.000098 0.000474615 M 3.001406 0.000333039 L 2.999621 5.001198 " transform="matrix(-1.013398,1.370437,-1.370437,-1.013398,345.8702,102.5746)"/>
<g clip-path="url(#clip88)" clip-rule="nonzero">
<path style="fill:none;stroke-width:3;stroke-linecap:butt;stroke-linejoin:miter;stroke:rgb(82.743835%,51.763916%,45.097351%);stroke-opacity:1;stroke-miterlimit:4;" d="M 0.00171025 -0.00153277 C 30.531121 -0.00153277 61.060532 -0.00153277 91.589944 -0.00153277 L 93.092465 -0.00153277 " transform="matrix(0.77474,0,0,0.77474,335.8268,98.1965)"/>
</g>
<g clip-path="url(#clip89)" clip-rule="nonzero">
<path style="fill:none;stroke-width:1.363636;stroke-linecap:butt;stroke-linejoin:round;stroke:rgb(82.743835%,51.763916%,45.097351%);stroke-opacity:1;stroke-miterlimit:10;" d="M 0.000707716 -0.00090573 L 3.000708 4.999858 L 6.000708 -0.00090573 M 3.000708 -0.00090573 L 3.000708 4.999858 " transform="matrix(0,-1.704427,1.704427,0,406.7867,103.3098)"/>
</g>
<g clip-path="url(#clip90)" clip-rule="nonzero">
<path style="fill:none;stroke-width:3;stroke-linecap:butt;stroke-linejoin:miter;stroke:rgb(82.743835%,51.763916%,45.097351%);stroke-opacity:1;stroke-miterlimit:4;" d="M 82.997403 0.000798655 L 10.115052 54.7571 L 8.915052 55.659621 " transform="matrix(0.77474,0,0,0.77474,353.183,100.8861)"/>
</g>
<path style="fill:none;stroke-width:1.363636;stroke-linecap:butt;stroke-linejoin:round;stroke:rgb(82.743835%,51.763916%,45.097351%);stroke-opacity:1;stroke-miterlimit:10;" d="M -0.000181396 0.00117546 L 2.99976 5.001244 L 6.000281 0.000239084 M 2.999822 -0.000897196 L 2.99976 5.001244 " transform="matrix(1.023797,1.362685,-1.362685,1.023797,357.9471,139.2217)"/>
</g>
</svg>
